<svg xmlns="http://www.w3.org/2000/svg" width="340.156" height="226.771" version="1.2" viewBox="0 0 255.117 170.078"><g fill-rule="evenodd"><path fill="#facf05" d="M0 0h255.117v170.078H0V0"/><path fill="#194c9c" d="M114.45 89.32c11.671.657 19.898 10.668 18.312 22.282-1.403 10.27-10.028 18.445-20.075 19.742v17.476H99.238V89.324l12.676-.086c.836-.05 1.684.032 2.535.082zm-1.634 10.059c3.746-.875 6.801 3.082 6.801 8.812 0 5.727-3.055 11.114-6.8 11.993-.044.008-.086.02-.13.027v-20.8c.043-.013.086-.02.13-.032M138.61 93.484v15.442h-3.524v9.96h3.523v13.497c.004-1.602.004-1.602 0 0v.02c0 9.042 7.371 16.413 16.41 16.413 1.258 0 2.598-.175 3.872-.464v-8.727a5.297 5.297 0 0 1-2.282.535c-6.07 0-5.836-9.45-5.91-9.457v-11.816h8.192v-9.961h-8.192V93.484h-12.09M164.14 93.484v15.442h-3.519v9.96h3.52v13.497c.008-1.602.008-1.602 0 0v.02c0 9.042 7.375 16.413 16.414 16.413 1.254 0 2.597-.175 3.87-.464v-8.727a5.3 5.3 0 0 1-2.284.535c-6.07 0-5.836-9.45-5.907-9.457v-11.816h8.192v-9.961h-8.192V93.484h-12.093M146.36 61.453c-1.47 3.793-3.915 7.227-6.864 10.2-7.281 7.343-18.285 11.378-30.648 9.581-17.934-2.605-33.578-13.82-38.371-27.73.003.012-12.84 7.375-14.184 8.168C67.039 71.882 80.98 80.316 95.645 83.98 78.117 82.113 56.19 74.066 44.773 60.31l6.473-3.77c0 .004 0 .004.004.008C59.871 51.52 68.488 46.5 77.11 41.473a47.742 47.742 0 0 0 1.265 8.64c2.137 8.942 7.7 16.524 15.16 21.489 7.703 5.12 17.418 7.464 26.64 6.07 10.329-1.555 16.9-9.02 19.583-18.457a36.816 36.816 0 0 0 1.273-6.95l5.328 9.188"/><path fill="#ee2621" d="M97.813 36.723C82.965 28.23 81.94 25.66 79.953 21.258c-.05.023 1.734 1.789 4.637 2.375 5.77 1.172 15.937 2.508 25.242 5.648 8.23 2.774 15.879 6.848 19.95 10.422 7.34 6.453 6.87 16.828-.977 24.652 1.683-8.972-.64-18.52-8.262-23.675-3.297-2.235-6.867-3.965-10.438-5.559-3.355-1.496-6.78-2.754-10.19-4.027-4.298-1.602-8.524-2.336-12.77-3.977 2.566 2.7 5.648 4.406 8.804 5.899 3.602 1.707 6.922 3.27 8.875 6.476-1.015-.36-2.98.078-4.12.078-2.727 0-5.47-.234-7.724-.742 3.508 3.43 7.56 6.3 11.797 8.715-2.652.652-6.742.492-8.804.102-2.059-.387-1.961-.442-2.871-.747a32.171 32.171 0 0 0 2.933 2.247c4.707 3.183 9.93 4.949 14.195 5.101-4.285.414-9.773-.715-14.902-3.36-4.191-2.156-7.394-4.94-9.223-7.726 1.383.524 2.899.965 4.516 1.293a32.707 32.707 0 0 0 7.453.668c-1.203-.558-2.3-1.183-3.472-1.883-3.543-2.12-7.297-5.152-9.465-8.75 1.375.64 3.043 1.172 4.91 1.555h.012c.011.004.023.004.035.008.05.011.101.02.148.031h.004c.047.008.094.02.145.027a.609.609 0 0 0 .082.016c2.566.488 4.73.676 7.34.598"/></g></svg>